<svg width="275" height="75" viewBox="0 0 275 75" fill="none" xmlns="http://www.w3.org/2000/svg">
<path d="M0 0L38.6043 13.6523V60.549L0 74.2013V13.6523" fill="#145AAC"/>
<path d="M28.0103 17.6185H20.0109L3.03868 56.5845H12.4575L15.5499 48.7686H24.8166L26.1448 56.5845H35.5637L28.0103 17.6185ZM18.6422 40.0197L22.4645 28.62H22.8092L23.8332 40.0197H18.6422Z" fill="white"/>
<path d="M42.6638 50.0892C45.31 54.7651 50.4605 57.1315 54.6275 57.1315C62.1302 57.1315 68.0208 53.343 69.2982 45.7432C70.9103 36.05 65.0298 33.4675 58.9973 32.2046C56.341 31.5448 54.5768 30.555 54.8201 28.291C55.0229 26.3114 56.8884 25.3785 59.0885 25.4354C61.1062 25.4923 63.4076 26.3683 64.8778 28.2341L71.255 23.2851C68.2641 18.3817 64.3404 17.062 60.1227 17.062C53.7454 17.062 47.4696 19.8721 46.1414 27.8587C44.9146 35.2309 49.8218 40.123 55.2663 41.1242C58.0645 41.5565 61.1061 42.6032 60.7107 45.0264C60.366 47.0629 58.3079 47.9958 55.9557 47.9958C53.35 47.9958 50.4605 46.733 48.9397 44.2528L42.6638 50.0892Z" fill="#145AAC"/>
<path d="M75.3161 50.0892C77.9623 54.7651 83.1128 57.1315 87.2798 57.1315C94.7824 57.1315 100.673 53.343 101.95 45.7432C103.563 36.05 97.6821 33.4675 91.6496 32.2046C88.9932 31.5448 87.2291 30.555 87.4724 28.291C87.6752 26.3114 89.5407 25.3785 91.7408 25.4354C93.7584 25.4923 96.0599 26.3683 97.53 28.2341L103.907 23.2851C100.916 18.3817 96.9927 17.062 92.7749 17.062C86.3977 17.062 80.1218 19.8721 78.7937 27.8587C77.5669 35.2309 82.474 40.123 87.9185 41.1242C90.7168 41.5565 93.7584 42.6032 93.363 45.0264C93.0183 47.0629 90.9601 47.9958 88.6079 47.9958C86.0023 47.9958 83.1128 46.733 81.5919 44.2528L75.3161 50.0892Z" fill="#145AAC"/>
<path d="M121.602 17.6185H112.822L107.965 56.5845H116.746L121.602 17.6185Z" fill="#145AAC"/>
<path d="M125.661 50.0892C128.307 54.7651 133.457 57.1315 137.624 57.1315C145.127 57.1315 151.018 53.343 152.295 45.7432C153.907 36.05 148.027 33.4675 141.994 32.2046C139.338 31.5448 137.574 30.555 137.817 28.291C138.02 26.3114 139.885 25.3785 142.086 25.4354C144.103 25.4923 146.405 26.3683 147.875 28.2341L154.252 23.2851C151.261 18.3817 147.337 17.062 143.12 17.062C136.742 17.062 130.467 19.8721 129.138 27.8587C127.912 35.2309 132.819 40.123 138.263 41.1242C141.062 41.5565 144.103 42.6032 143.708 45.0264C143.363 47.0629 141.305 47.9958 138.953 47.9958C136.347 47.9958 133.457 46.733 131.937 44.2528L125.661 50.0892Z" fill="#145AAC"/>
<path d="M186.246 26.7205L187.423 17.6986H159.805L158.629 26.7205H167.997L164.316 56.7214H173.198L176.868 26.7205H186.246Z" fill="#145AAC"/>
<path d="M204.795 17.6185H196.015L191.158 56.5845H199.938L204.795 17.6185Z" fill="#145AAC"/>
<path d="M221.403 26.9704H236.712L237.888 17.6185H213.707L208.851 56.5845H217.732L219.395 43.1597H232.788L233.914 33.9672H220.52L221.403 26.9704Z" fill="#145AAC"/>
<path d="M257.987 56.5845L259.893 41.2257L275 17.6185H264.699L256.659 31.3164L252.147 17.6185H241.948L251.113 41.2257L249.207 56.5845H257.987Z" fill="#145AAC"/>
</svg>
