<svg width="152" height="42" viewBox="0 0 152 42" fill="none" xmlns="http://www.w3.org/2000/svg">
<path d="M0 0L21.3377 7.54601V33.4671L0 41.0131V7.54601" fill="white"/>
<path d="M15.4821 9.73825H11.0606L1.67957 31.2758H6.88563L8.59484 26.9557H13.7168L14.451 31.2758H19.657L15.4821 9.73825ZM10.304 22.12L12.4167 15.8191H12.6073L13.1733 22.12H10.304Z" fill="#145AAC"/>
<path d="M23.5815 27.6857C25.0441 30.2702 27.8909 31.5782 30.1941 31.5782C34.3411 31.5782 37.597 29.4841 38.3031 25.2835C39.1941 19.9259 35.9438 18.4984 32.6094 17.8004C31.1412 17.4357 30.1661 16.8886 30.3006 15.6372C30.4127 14.543 31.4438 14.0274 32.6599 14.0588C33.7751 14.0903 35.0472 14.5745 35.8597 15.6058L39.3846 12.8703C37.7314 10.1601 35.5627 9.43061 33.2315 9.43061C29.7066 9.43061 26.2378 10.9838 25.5036 15.3983C24.8256 19.4731 27.5379 22.1771 30.5472 22.7305C32.0939 22.9694 33.7751 23.5479 33.5565 24.8874C33.366 26.013 32.2284 26.5286 30.9283 26.5286C29.488 26.5286 27.8909 25.8306 27.0503 24.4598L23.5815 27.6857Z" fill="white"/>
<path d="M41.6293 27.6857C43.0919 30.2702 45.9387 31.5782 48.2419 31.5782C52.3889 31.5782 55.6448 29.4841 56.3509 25.2835C57.2419 19.9259 53.9916 18.4984 50.6572 17.8004C49.189 17.4357 48.2139 16.8886 48.3484 15.6372C48.4605 14.543 49.4916 14.0274 50.7077 14.0588C51.8229 14.0903 53.095 14.5745 53.9075 15.6058L57.4324 12.8703C55.7793 10.1601 53.6105 9.43061 51.2793 9.43061C47.7544 9.43061 44.2856 10.9838 43.5514 15.3983C42.8734 19.4731 45.5857 22.1771 48.595 22.7305C50.1417 22.9694 51.8229 23.5479 51.6043 24.8874C51.4138 26.013 50.2762 26.5286 48.9761 26.5286C47.5358 26.5286 45.9387 25.8306 45.0981 24.4598L41.6293 27.6857Z" fill="white"/>
<path d="M67.2128 9.73825H62.3598L59.6755 31.2758H64.5285L67.2128 9.73825Z" fill="white"/>
<path d="M69.4562 27.6857C70.9188 30.2702 73.7657 31.5782 76.0689 31.5782C80.2158 31.5782 83.4717 29.4841 84.1778 25.2835C85.0688 19.9259 81.8185 18.4984 78.4842 17.8004C77.0159 17.4357 76.0409 16.8886 76.1753 15.6372C76.2874 14.543 77.3186 14.0274 78.5346 14.0588C79.6498 14.0903 80.9219 14.5745 81.7345 15.6058L85.2593 12.8703C83.6062 10.1601 81.4375 9.43061 79.1062 9.43061C75.5813 9.43061 72.1125 10.9838 71.3784 15.3983C70.7003 19.4731 73.4126 22.1771 76.4219 22.7305C77.9686 22.9694 79.6498 23.5479 79.4312 24.8874C79.2407 26.013 78.1031 26.5286 76.803 26.5286C75.3628 26.5286 73.7657 25.8306 72.9251 24.4598L69.4562 27.6857Z" fill="white"/>
<path d="M102.944 14.7691L103.594 9.78248H88.3285L87.6784 14.7691H92.8565L90.8223 31.3515H95.7313L97.7599 14.7691H102.944Z" fill="white"/>
<path d="M113.196 9.73825H108.343L105.658 31.2758H110.512L113.196 9.73825Z" fill="white"/>
<path d="M122.375 14.9073H130.837L131.487 9.73825H118.122L115.438 31.2758H120.347L121.266 23.8556H128.669L129.291 18.7746H121.888L122.375 14.9073Z" fill="white"/>
<path d="M142.597 31.2758L143.65 22.7866L152 9.73825H146.306L141.862 17.3094L139.369 9.73825H133.731L138.797 22.7866L137.744 31.2758H142.597Z" fill="white"/>
</svg>
